<svg xmlns="http://www.w3.org/2000/svg" viewBox="0 0 472.25 167.16"><title>Asset 1</title><g id="Layer_2" data-name="Layer 2"><g id="Layer_1-2" data-name="Layer 1"><path d="M417.46,86.44l-.11.54a13.2,13.2,0,0,1,2.48,2c1.32,1.73,2.81,3.32,3.6,5.48,1.09,2.93.7,5.9.63,8.85A14.06,14.06,0,0,1,423,107a7.23,7.23,0,0,1-.37,1.25c-.7,1.39-1.42,2.78-2.18,4.14-1,1.74-1.95,3.46-2.95,5.17-1.21,2-2.51,4-3.67,6.12-1.36,2.47-2.61,5-3.94,7.48-.48.89-1.11,1.69-1.62,2.57-1.46,2.53-2.89,5.09-4.36,7.62-.58,1-1.23,2-1.82,3-.94,1.61-1.79,3.28-2.79,4.86a32.78,32.78,0,0,1-2.57,3.53c-1.08,1.33-2.2,2.63-3.4,3.86a30.34,30.34,0,0,1-6.78,5.13,32,32,0,0,1-4,2,37.84,37.84,0,0,1-4,1.14c-1.49.42-3,.94-4.49,1.24-1.16.22-2.39.12-3.57.25-14.05,1.46-28.13.42-42.19.61s-28.14.05-42.21.05H2.28C0,167,0,167,0,164.7q0-12.15,0-24.29a2,2,0,0,1,2-2q87.8,0,175.58.07a4.22,4.22,0,0,0,4.34-2.73c1-2,2.35-3.77,3.48-5.68.69-1.17,1.2-2.44,1.88-3.62,1-1.77,2.16-3.48,3.19-5.25,1.21-2.09,2.32-4.23,3.53-6.31.57-1,1.33-1.85,1.93-2.81s1.15-2,1.71-3c1.28-2.32,2.53-4.66,3.84-7,.78-1.38,1.65-2.72,2.47-4.09,1.14-1.88,2.28-3.75,3.4-5.64,1.64-2.79,3.23-5.61,4.89-8.38,1-1.71,2.2-3.33,3.21-5.05,1.16-2,2.2-4,3.3-6.08.32-.59.68-1.16,1-1.74,1.45-2.48,2.87-5,4.35-7.43.59-1,1.35-1.85,2-2.82s1.12-2.06,1.68-3.08c1.27-2.3,2.5-4.61,3.83-6.87s2.74-4.37,4.1-6.56c.41-.67.74-1.39,1.13-2.08L240.46,36c1-1.76,2-3.53,3.08-5.29.39-.66.85-1.28,1.24-1.94,1.37-2.39,2.73-4.79,4.1-7.19.17-.31.4-.59.58-.89l4.4-7.21c2-3.3,4-6.59,5.91-10,.38-.67.7-1.37,1-2.06A2.26,2.26,0,0,1,263.06,0c9.62.05,19.24,0,28.86,0H449.58c1,0,2.08,0,3.12,0a21.06,21.06,0,0,1,9.38,2.57,19,19,0,0,1,6.69,5.77,17.48,17.48,0,0,1,2.9,6.32,14.22,14.22,0,0,1,.5,5.07,25.58,25.58,0,0,1-1.73,7c-1.54,3.34-3.62,6.44-5.44,9.67-1.38,2.43-2.65,4.92-4.07,7.33-1.13,1.92-2.43,3.75-3.59,5.66-.61,1-1,2.09-1.63,3.1-1.07,1.88-2.19,3.73-3.27,5.59-1.2,2.09-2.37,4.19-3.58,6.26a28.16,28.16,0,0,1-1.77,2.76c-.85,1.17-1.78,2.29-2.71,3.4-1.35,1.62-2.67,3.29-4.13,4.82a19.57,19.57,0,0,1-3.42,2.79c-2.53,1.67-5.09,3.3-7.72,4.79A25,25,0,0,1,424.22,85a47.65,47.65,0,0,1-5.09,1C418.56,86.11,418,86.29,417.46,86.44ZM345.79,69c4.32,0,8.64.11,13,0,4.88-.17,9.83.78,14.62-.73A23.35,23.35,0,0,0,378,66.19a10.78,10.78,0,0,0,3.3-2.62c1.65-2.22,3-4.66,4.47-7,.95-1.51,1.93-3,2.88-4.51s1.8-2.9,2.7-4.35c1.23-2,2.56-3.91,3.66-6a12.5,12.5,0,0,0,1.46-4.14,42.39,42.39,0,0,0,.06-5.75,1.4,1.4,0,0,0-.24-.66c-1.3-2.31-3.53-3.08-5.92-3.1-11.56-.08-23.12,0-34.68,0-3.64,0-7.28,0-10.92,0a2.32,2.32,0,0,0-2.13,1.42,18.05,18.05,0,0,1-1.21,2.2c-1,1.64-2.05,3.24-3,4.89-1.24,2.11-2.4,4.27-3.65,6.37s-2.71,4.39-4,6.61c-.84,1.43-1.56,3-2.4,4.39-1.49,2.56-3,5.1-4.55,7.64-1.29,2.14-2.6,4.26-3.91,6.38a.64.64,0,0,0,.5,1.05c.36,0,.72,0,1.08,0Zm-67.24,68.78a9.71,9.71,0,0,0,1.05.11q25.25,0,50.5-.11a13.71,13.71,0,0,0,3.6-.95,5.73,5.73,0,0,0,2-.68c1.8-1.4,3.51-2.91,5.23-4.41a5,5,0,0,0,.89-1.22c.9-1.55,1.74-3.14,2.67-4.67.56-.93,1.31-1.75,1.87-2.68.89-1.5,1.59-3.13,2.56-4.58a60.38,60.38,0,0,0,5-8.25,17.82,17.82,0,0,0,.86-2.28,18.38,18.38,0,0,0,1.14-4.16,6.8,6.8,0,0,0-.79-3.76,5.86,5.86,0,0,0-3-2.45,19.8,19.8,0,0,0-5.24-.36c-13.87,0-27.75,0-41.62,0-1.82,0-3.46,0-4.07,2.14,0,.1-.18.16-.24.26-1.1,1.83-2.2,3.65-3.28,5.49-.82,1.38-1.57,2.8-2.41,4.18s-1.87,2.83-2.74,4.29c-1.23,2-2.37,4.14-3.58,6.21-1.07,1.84-2.17,3.67-3.28,5.49-.93,1.53-1.89,3-2.85,4.56-.51.83-1.09,1.62-1.54,2.47C280.38,134.14,279.52,135.89,278.55,137.81Z"/></g></g></svg>