<svg xmlns="http://www.w3.org/2000/svg" viewBox="0 0 303.72 168.91"><defs><style>.cls-1{fill:none;stroke:#fff;stroke-miterlimit:10;stroke-width:2px;}</style></defs><title>Asset 3</title><g id="Layer_2" data-name="Layer 2"><g id="Layer_1-2" data-name="Layer 1"><path class="cls-1" d="M107.3,167.78q-42.84,0-85.68,0a33,33,0,0,1-7.15-.77,19.33,19.33,0,0,1-6.05-2.37,16.29,16.29,0,0,1-6-6.3,14.83,14.83,0,0,1-1.16-9.37,13,13,0,0,1,1.81-5.51c1.06-1.51,1.59-3.37,2.52-5,1.32-2.32,2.8-4.55,4.17-6.84.81-1.35,1.55-2.74,2.33-4.11l1.78-3.11c.76-1.31,1.49-2.64,2.28-3.93,1.1-1.81,2.3-3.55,3.36-5.38s2.14-4,3.25-5.94c.62-1.08,1.38-2.09,2-3.16s1.09-2,1.64-3c1.25-2.19,2.5-4.39,3.77-6.57.59-1,1.25-2,1.84-3,1.15-2,2.27-4,3.42-6,.48-.82,1-1.6,1.49-2.42.77-1.3,1.55-2.6,2.3-3.92,1-1.8,2-3.63,3-5.4.88-1.46,1.94-2.81,2.81-4.28,1.11-1.88,2.07-3.86,3.18-5.74,1.36-2.32,2.83-4.57,4.21-6.87.53-.87.92-1.83,1.43-2.72,2.1-3.68,4.2-7.36,6.36-11,.86-1.46,1.9-2.82,2.77-4.28,1.09-1.84,2-3.78,3.15-5.62s2.44-3.81,3.6-5.75c.86-1.44,1.55-3,2.43-4.42a23.34,23.34,0,0,1,2.43-3.4c2-2.22,3.89-4.46,6-6.48a45.35,45.35,0,0,1,5.4-4.13A42.93,42.93,0,0,1,91,8.1a55.6,55.6,0,0,1,6.61-2.93,72.21,72.21,0,0,1,7-1.85c2-.47,4-.93,6-1.25,1.3-.2,2.65,0,4-.2,11.8-1.57,23.65-.49,35.48-.69s23.76,0,35.64,0h71.15c8.24,0,16.49-.08,24.72.07a26.21,26.21,0,0,1,6.05,1.27,39.76,39.76,0,0,1,4.31,1.58,5.58,5.58,0,0,1,1.34.89c1.48,1.18,2.9,2.44,4.42,3.57,1.72,1.28,2.6,3.11,3.56,4.92a13.12,13.12,0,0,1,1.32,8.16,15.52,15.52,0,0,1-1.87,6.1c-.92,1.5-1.64,3.13-2.51,4.66s-1.69,2.69-2.5,4.06c-.95,1.62-1.81,3.28-2.77,4.89-.58,1-1.31,1.87-1.88,2.85-1.16,2-2.23,4.08-3.4,6.09-.58,1-1.35,1.93-2,2.93s-1.15,2.12-1.74,3.17c-1.24,2.25-2.48,4.5-3.76,6.72-.77,1.34-1.64,2.63-2.43,4-1.18,2-2.3,4-3.49,6s-2.45,3.81-3.61,5.75c-.86,1.45-1.57,3-2.4,4.47-.72,1.28-1.52,2.51-2.27,3.77-1.23,2.09-2.43,4.19-3.67,6.27-1.45,2.44-2.94,4.86-4.41,7.29s-3,5-4.5,7.5c-1.11,1.93-2.08,3.94-3.16,5.89-.55,1-1.22,1.88-1.79,2.85-1.17,2-2.31,4.08-3.48,6.12-.43.75-.93,1.46-1.37,2.2-1.07,1.8-2.11,3.62-3.19,5.41-.93,1.54-1.94,3-2.84,4.58s-1.54,3-2.43,4.5c-1,1.7-2.24,3.32-3.37,5-.84,1.22-1.7,2.42-2.54,3.64-.26.38-.49.78-.76,1.16a51.74,51.74,0,0,1-7.83,8.62,21.51,21.51,0,0,1-6.87,4.67c-1.18.42-2.18,1.29-3.34,1.8a33.07,33.07,0,0,1-3.56,1.2c-1.4.44-2.8.92-4.22,1.27a17.11,17.11,0,0,1-2.38.2c-15.46,1.43-30.94.46-46.41.63S122.82,167.78,107.3,167.78Zm15.14-28.62v0c1,0,1.92,0,2.87,0a37.78,37.78,0,0,0,9.31-.79,1.35,1.35,0,0,0,.36-.07c1.66-.94,3.52-1.37,5.14-2.55a22.42,22.42,0,0,0,5.72-6.34c1.4-2.22,2.66-4.52,4-6.76.58-1,1.33-1.81,1.88-2.77,1.19-2,2.29-4.15,3.45-6.22.63-1.12,1.31-2.22,2-3.32.87-1.46,1.73-2.93,2.61-4.39,1.08-1.8,2.2-3.6,3.28-5.41.67-1.14,1.27-2.32,1.95-3.45.48-.8,1.07-1.53,1.54-2.34.91-1.57,1.77-3.18,2.65-4.77.4-.71.8-1.41,1.21-2.11.52-.87,1.06-1.74,1.58-2.61.95-1.57,1.89-3.15,2.85-4.73.54-.89,1.13-1.76,1.65-2.67,1.17-2.06,2.26-4.17,3.47-6.22s2.68-4.21,3.95-6.36,2.28-4.08,3.42-6.12c.3-.54.6-1.08.93-1.61,1-1.66,2.11-3.3,3.09-5,1.24-2.14,2.4-4.32,3.6-6.49.87-1.57,1.8-3.12,2.58-4.73.41-.83.39-1.88.86-2.64a3.41,3.41,0,0,0,0-4.09,7.89,7.89,0,0,0-3.56-3.55,11.93,11.93,0,0,0-2.2-.68,50.87,50.87,0,0,0-6.28-1.24,37.38,37.38,0,0,0-10.17.63c-1.69.31-3.4.54-5.1.81a.65.65,0,0,0-.22.08c-1.81.93-3.7,1.74-5.41,2.83A16.11,16.11,0,0,0,161.14,37c-1.76,2.28-3.85,4.32-5.06,7a42.49,42.49,0,0,1-2.63,4.15c-1.72,2.89-3.34,5.82-5.06,8.7-.93,1.56-2,3-3,4.56-1.08,1.81-2.06,3.67-3.08,5.51-.2.38-.32.8-.55,1.15-1.08,1.66-2.25,3.26-3.26,5-1.49,2.51-2.85,5.09-4.33,7.61-1,1.69-2.11,3.3-3.11,5-1.25,2.11-2.42,4.27-3.67,6.38-1.34,2.29-2.74,4.55-4.11,6.83s-2.72,4.57-4.1,6.83c-.81,1.33-1.71,2.59-2.49,3.93-1.42,2.42-2.76,4.89-4.18,7.31s-2.82,4.65-4.2,7c-.79,1.34-1.45,2.76-2.29,4.07a7.43,7.43,0,0,0-1.39,4.1,4.47,4.47,0,0,0,.14,1.65,8.37,8.37,0,0,0,5.57,4.62,27,27,0,0,0,5.82.81C118.27,139.26,120.36,139.16,122.44,139.16Z"/></g></g></svg>