<svg xmlns="http://www.w3.org/2000/svg" viewBox="0 0 1362.66 168.92"><defs><style>.cls-1{fill:none;stroke:#000;stroke-miterlimit:10;stroke-width:2px;}</style></defs><title>Asset 4</title><g id="Layer_2" data-name="Layer 2"><g id="Layer_1-2" data-name="Layer 1"><path class="cls-1" d="M417.51,88a12.26,12.26,0,0,1,2.42,1.94c1.31,1.73,2.8,3.32,3.6,5.47,1.08,2.93.69,5.89.62,8.83a14.25,14.25,0,0,1-1.08,3.68,8.49,8.49,0,0,1-.38,1.24c-.7,1.39-1.41,2.77-2.17,4.13q-1.44,2.6-2.95,5.16c-1.2,2-2.5,4-3.65,6.11-1.37,2.46-2.61,5-3.94,7.46-.48.89-1.11,1.69-1.61,2.57-1.46,2.52-2.89,5.07-4.35,7.6-.58,1-1.23,2-1.82,3-.94,1.61-1.79,3.28-2.78,4.86a36.38,36.38,0,0,1-2.57,3.52c-1.13,1.38-2.31,2.75-3.57,4a30.53,30.53,0,0,1-6.65,5,31.49,31.49,0,0,1-3.93,2,37.66,37.66,0,0,1-4,1.14c-1.49.42-3,.94-4.48,1.23-1.16.23-2.38.13-3.57.25-14,1.46-28.06.42-42.09.62s-28.08,0-42.12,0H3.28c-2.27,0-2.27,0-2.27-2.32q0-12.12,0-24.24c0-2,0-2,2-2q87.6,0,175.2.06a4.21,4.21,0,0,0,4.33-2.72c1-2,2.35-3.76,3.47-5.66.69-1.17,1.2-2.45,1.88-3.62,1-1.77,2.16-3.47,3.18-5.24,1.21-2.08,2.31-4.22,3.53-6.3.57-1,1.32-1.84,1.92-2.8s1.15-2,1.71-3c1.27-2.32,2.53-4.65,3.83-7,.78-1.38,1.64-2.71,2.47-4.08,1.13-1.87,2.27-3.74,3.38-5.62,1.64-2.79,3.23-5.6,4.89-8.37,1-1.7,2.2-3.32,3.2-5,1.15-2,2.19-4,3.29-6.07.32-.59.68-1.16,1-1.74,1.44-2.47,2.86-5,4.34-7.42.59-1,1.35-1.84,1.95-2.81s1.11-2,1.68-3.08c1.26-2.29,2.49-4.6,3.82-6.85s2.73-4.36,4.08-6.55c.42-.66.74-1.38,1.14-2.06,1.2-2.09,2.42-4.16,3.62-6.24,1-1.75,2-3.52,3.08-5.27.39-.66.85-1.28,1.23-1.94,1.38-2.39,2.73-4.78,4.09-7.17.18-.31.4-.59.59-.9l4.39-7.19c1.52-2.52,3.06-5,4.54-7.57.87-1.49,1.64-3,2.47-4.56a2.22,2.22,0,0,1,2.17-1.3c9.6,0,19.2,0,28.8,0H449.61c1,0,2.09,0,3.12,0a21.15,21.15,0,0,1,9.36,2.57,18.91,18.91,0,0,1,6.67,5.76,17.38,17.38,0,0,1,2.9,6.3,14.42,14.42,0,0,1,.5,5.06,26.08,26.08,0,0,1-1.72,6.93c-1.55,3.34-3.62,6.43-5.44,9.65-1.37,2.43-2.64,4.91-4.06,7.32-1.12,1.92-2.42,3.74-3.58,5.64-.61,1-1.05,2.09-1.63,3.1-1.06,1.88-2.18,3.72-3.26,5.58-1.2,2.08-2.37,4.17-3.58,6.25a29.07,29.07,0,0,1-1.75,2.75c-.86,1.17-1.78,2.28-2.71,3.39-1.39,1.66-2.73,3.37-4.23,4.92a20.54,20.54,0,0,1-3.45,2.77c-2.48,1.63-5,3.22-7.56,4.68A24.89,24.89,0,0,1,424.31,86a48,48,0,0,1-5.08,1c-.57.11-1.12.3-1.68.45ZM346.28,70.08c4.32,0,8.65.12,13,0,4.88-.16,9.83.78,14.62-.72a23.8,23.8,0,0,0,4.63-2.09,10.63,10.63,0,0,0,3.3-2.62c1.64-2.22,3-4.65,4.46-7,.95-1.5,1.93-3,2.88-4.5s1.8-2.91,2.7-4.36c1.23-2,2.56-3.91,3.66-6A12.2,12.2,0,0,0,397,38.66a40.81,40.81,0,0,0,.06-5.75,1.46,1.46,0,0,0-.23-.65c-1.3-2.32-3.54-3.09-5.93-3.1-11.56-.08-23.12,0-34.68,0H345.26a2.16,2.16,0,0,0-2.16,1.47,18,18,0,0,1-1.19,2.15c-1,1.63-2.05,3.24-3,4.89-1.25,2.11-2.41,4.26-3.65,6.37s-2.72,4.38-4,6.6c-.85,1.44-1.57,2.95-2.41,4.4q-2.24,3.84-4.54,7.64c-1.29,2.13-2.61,4.25-3.92,6.38-.39.63-.23,1,.51,1,.35,0,.71,0,1.07,0Zm-67.24,69a10,10,0,0,0,1,.11c16.84,0,33.67,0,50.51-.11a13.54,13.54,0,0,0,3.59-1,5.66,5.66,0,0,0,2-.68c1.8-1.4,3.52-2.91,5.23-4.42a4.51,4.51,0,0,0,.89-1.21c.9-1.55,1.74-3.14,2.67-4.67.57-.93,1.32-1.75,1.87-2.68.9-1.5,1.59-3.13,2.56-4.58a60.45,60.45,0,0,0,5-8.25,17.77,17.77,0,0,0,.85-2.28,18.53,18.53,0,0,0,1.14-4.16,6.72,6.72,0,0,0-.79-3.76,5.74,5.74,0,0,0-3-2.45,19.72,19.72,0,0,0-5.23-.36c-13.88,0-27.75,0-41.63,0-1.82,0-3.46,0-4.06,2.14,0,.1-.18.16-.24.26-1.1,1.83-2.21,3.65-3.29,5.49-.82,1.38-1.57,2.8-2.4,4.17s-1.88,2.84-2.75,4.29c-1.22,2.05-2.37,4.15-3.57,6.21q-1.62,2.77-3.29,5.5c-.93,1.53-1.89,3-2.84,4.56-.52.82-1.09,1.61-1.55,2.47C280.87,135.42,280,137.17,279,139.09Z"/><path class="cls-1" d="M539.08,167.78q-42.84,0-85.68,0a33,33,0,0,1-7.15-.77,19.33,19.33,0,0,1-6.05-2.37,16.29,16.29,0,0,1-6-6.3,14.83,14.83,0,0,1-1.16-9.37,13,13,0,0,1,1.81-5.51c1.06-1.51,1.59-3.37,2.52-5,1.32-2.32,2.8-4.55,4.17-6.84.81-1.35,1.55-2.74,2.33-4.11l1.78-3.11c.76-1.31,1.49-2.64,2.28-3.93,1.1-1.81,2.3-3.55,3.36-5.38s2.14-4,3.25-5.94c.62-1.08,1.38-2.09,2-3.16s1.09-2,1.65-3c1.24-2.19,2.49-4.39,3.76-6.57.59-1,1.25-2,1.84-3,1.15-2,2.27-4,3.42-6,.48-.82,1-1.6,1.49-2.42.77-1.3,1.55-2.6,2.3-3.92,1-1.8,2-3.63,3.05-5.4C475,74.3,476,73,476.89,71.48c1.11-1.88,2.07-3.86,3.18-5.74,1.36-2.32,2.83-4.57,4.21-6.87.53-.87.92-1.83,1.43-2.72,2.1-3.68,4.2-7.36,6.36-11,.86-1.46,1.9-2.82,2.77-4.28,1.09-1.84,2.05-3.78,3.15-5.62s2.44-3.81,3.6-5.75c.86-1.44,1.55-3,2.43-4.42a23.34,23.34,0,0,1,2.43-3.4c1.95-2.22,3.89-4.46,6-6.48a45.35,45.35,0,0,1,5.4-4.13,42.93,42.93,0,0,1,4.91-3,55.6,55.6,0,0,1,6.61-2.93,72.21,72.21,0,0,1,7-1.85c2-.47,4-.93,6-1.25,1.3-.2,2.65,0,4-.2C558.16.3,570,1.38,581.84,1.18s23.76,0,35.64,0h71.16c8.23,0,16.48-.08,24.71.07a26.21,26.21,0,0,1,6,1.27,39.76,39.76,0,0,1,4.31,1.58,5.58,5.58,0,0,1,1.34.89c1.48,1.18,2.9,2.44,4.42,3.57,1.72,1.28,2.6,3.11,3.56,4.92a13.12,13.12,0,0,1,1.32,8.16,15.52,15.52,0,0,1-1.87,6.1c-.92,1.5-1.64,3.13-2.51,4.66s-1.69,2.69-2.5,4.06c-1,1.62-1.81,3.28-2.77,4.89-.58,1-1.31,1.87-1.88,2.85-1.16,2-2.23,4.08-3.39,6.09-.59,1-1.36,1.93-2,2.93s-1.15,2.12-1.74,3.17c-1.24,2.25-2.48,4.5-3.76,6.72-.77,1.34-1.64,2.63-2.43,4-1.18,2-2.29,4-3.49,6s-2.45,3.81-3.61,5.75c-.86,1.45-1.57,3-2.4,4.47-.72,1.28-1.52,2.51-2.27,3.77-1.23,2.09-2.43,4.19-3.67,6.27-1.45,2.44-2.94,4.86-4.41,7.29s-3,5-4.5,7.5c-1.11,1.93-2.08,3.94-3.16,5.89-.55,1-1.22,1.88-1.79,2.85-1.17,2-2.31,4.08-3.48,6.12-.43.75-.93,1.46-1.37,2.2-1.07,1.8-2.11,3.62-3.19,5.41-.93,1.54-1.94,3-2.84,4.58s-1.54,3-2.43,4.5c-1,1.7-2.23,3.32-3.37,5-.84,1.22-1.7,2.42-2.54,3.64-.26.38-.49.78-.76,1.16a51.74,51.74,0,0,1-7.83,8.62,21.51,21.51,0,0,1-6.87,4.67c-1.18.42-2.18,1.29-3.34,1.8a33.07,33.07,0,0,1-3.56,1.2c-1.4.44-2.8.92-4.22,1.27a17.11,17.11,0,0,1-2.38.2c-15.46,1.43-30.94.46-46.41.63S554.6,167.78,539.08,167.78Zm15.14-28.62v0c.95,0,1.92,0,2.87,0a37.78,37.78,0,0,0,9.31-.79,1.35,1.35,0,0,0,.36-.07c1.66-.94,3.52-1.37,5.14-2.55a22.42,22.42,0,0,0,5.72-6.34c1.4-2.22,2.66-4.52,4-6.76.58-1,1.33-1.81,1.88-2.77,1.19-2,2.29-4.15,3.45-6.22.63-1.12,1.31-2.22,2-3.32.87-1.46,1.73-2.93,2.61-4.39,1.08-1.8,2.2-3.6,3.28-5.41.67-1.14,1.27-2.32,1.95-3.45.48-.8,1.07-1.53,1.54-2.34.91-1.57,1.77-3.18,2.65-4.77.4-.71.8-1.41,1.21-2.11.52-.87,1.06-1.74,1.58-2.61,1-1.57,1.89-3.15,2.85-4.73.54-.89,1.13-1.76,1.65-2.67,1.17-2.06,2.26-4.17,3.47-6.22s2.68-4.21,4-6.36,2.28-4.08,3.42-6.12c.3-.54.61-1.08.93-1.61,1-1.66,2.11-3.3,3.09-5,1.24-2.14,2.41-4.32,3.6-6.49.87-1.57,1.8-3.12,2.58-4.73.41-.83.39-1.88.86-2.64a3.41,3.41,0,0,0,0-4.09,7.89,7.89,0,0,0-3.56-3.55,11.93,11.93,0,0,0-2.2-.68,50.87,50.87,0,0,0-6.28-1.24,37.38,37.38,0,0,0-10.17.63c-1.69.31-3.4.54-5.1.81a.65.65,0,0,0-.22.08c-1.81.93-3.7,1.74-5.41,2.83A16.11,16.11,0,0,0,592.92,37c-1.76,2.28-3.85,4.32-5.06,7a42.49,42.49,0,0,1-2.63,4.15c-1.72,2.89-3.34,5.82-5.06,8.7-.93,1.56-2,3-3,4.56-1.08,1.81-2.06,3.67-3.08,5.51-.2.38-.32.8-.55,1.15-1.08,1.66-2.25,3.26-3.26,5-1.49,2.51-2.85,5.09-4.33,7.61-1,1.69-2.11,3.3-3.11,5-1.25,2.11-2.42,4.27-3.67,6.38-1.34,2.29-2.74,4.55-4.11,6.83s-2.72,4.57-4.1,6.83c-.81,1.33-1.71,2.59-2.49,3.93-1.42,2.42-2.76,4.89-4.18,7.31s-2.82,4.65-4.2,7c-.79,1.34-1.45,2.76-2.29,4.07a7.43,7.43,0,0,0-1.39,4.1,4.47,4.47,0,0,0,.14,1.65,8.37,8.37,0,0,0,5.57,4.62,27,27,0,0,0,5.82.81C550.05,139.26,552.14,139.16,554.22,139.16Z"/><path class="cls-1" d="M1093.49,70.08h126.58c1.87,0,2.2.52,1.27,2.13-1.42,2.46-2.89,4.89-4.31,7.36-.83,1.42-1.57,2.89-2.41,4.3-1.36,2.29-2.81,4.53-4.15,6.84-.67,1.14-1.14,2.41-1.8,3.57s-1.52,2.43-2.34,3.6c-.14.21-.55.29-.84.32-.52,0-1,0-1.56,0q-62.4,0-124.79-.07c-2.24,0-3.06,1.17-4,2.64-1.08,1.76-2.09,3.56-3.13,5.35-.55,1-1,1.93-1.63,2.85-1.05,1.68-2.2,3.29-3.22,5s-2,3.69-3.08,5.53c-.54.94-1.12,1.86-1.67,2.79-1.43,2.43-2.83,4.87-4.28,7.28-1.69,2.8-3.43,5.57-5.12,8.36-.39.64-.37,1.17.55,1.24.48,0,1,0,1.44,0q62.16,0,124.32,0a12.57,12.57,0,0,1,2.15.37c-.31.69-.59,1.39-.94,2-.83,1.55-1.68,3.09-2.57,4.61-.53.91-1.16,1.76-1.7,2.67-1.22,2-2.38,4.11-3.61,6.14-1.08,1.79-2.25,3.53-3.32,5.32-.88,1.48-1.67,3-2.49,4.51a7.55,7.55,0,0,1-1,1.75,5.67,5.67,0,0,1-1.83,1.12,3.14,3.14,0,0,1-1.19,0H938.32l-.3-.39c.65-1.26,1.28-2.55,2-3.79s1.51-2.59,2.28-3.87c1.49-2.44,3-4.85,4.46-7.32,1.58-2.73,3-5.52,4.61-8.27.8-1.41,1.72-2.75,2.55-4.16,1.15-1.95,2.25-3.93,3.39-5.88.61-1,1.31-2,1.91-3,.91-1.58,1.74-3.21,2.67-4.78s1.9-3,2.8-4.48,1.56-2.8,2.34-4.19l1.68-3c.43-.78.86-1.56,1.28-2.34.08-.14.07-.33.15-.46,1.39-2.19,2.85-4.35,4.16-6.59,1.46-2.48,2.76-5,4.18-7.55,1-1.7,2.09-3.32,3.08-5,1.23-2.06,2.36-4.18,3.59-6.25s2.66-4.26,4-6.41c.68-1.12,1.24-2.31,1.93-3.43,1.18-1.93,2.44-3.8,3.61-5.74.61-1,1-2.17,1.63-3.22,1-1.85,2.1-3.67,3.15-5.51,1.25-2.18,2.46-4.38,3.75-6.54s2.68-4.24,4-6.38c.7-1.16,1.22-2.42,1.92-3.57,1.17-2,2.45-3.83,3.63-5.76.59-1,1-2,1.58-3,1.06-1.88,2.14-3.74,3.22-5.61,1.21-2.11,2.39-4.25,3.65-6.33s2.81-4.36,4.15-6.57c.64-1.06,1.08-2.24,1.71-3.29,1.21-2,2.54-4,3.72-6,1.35-2.32,2.56-4.71,3.91-7a2.75,2.75,0,0,1,1.37-.88,3.36,3.36,0,0,1,1.19,0h321.94c2.52,0,2.52,0,2.52,2.47q0,11.76,0,23.51c0,2,0,2-2,2H1118.83a3.11,3.11,0,0,0-3.18,2.37,25.81,25.81,0,0,1-1.9,3.5c-1.1,1.89-2.25,3.74-3.34,5.63-1.51,2.64-3,5.32-4.49,7.94-1.36,2.31-2.85,4.55-4.2,6.87s-2.67,4.85-4,7.27q-1.83,3.28-3.71,6.55a2.56,2.56,0,0,1-.6.53Z"/><path class="cls-1" d="M849.25,98.85c-.81,0-1.42-.11-2-.11q-46,0-91.91,0c-3.78,0-7.56-.28-11.34-.47a3.27,3.27,0,0,1-1.05-.44,3.5,3.5,0,0,0-.94-.4c-3.78-.38-6.52-2.52-8.71-5.39a9.2,9.2,0,0,1-1-3.08,7.14,7.14,0,0,1-.59-2.6c.25-2,.93-3.93,1.17-5.93a12.71,12.71,0,0,1,1.58-4.64c.75-1.4,1.52-2.78,2.25-4.18.56-1.07,1-2.19,1.59-3.24,1.05-1.88,2.17-3.72,3.25-5.58,1.2-2.07,2.37-4.14,3.56-6.21.24-.41.52-.79.77-1.19,1.07-1.74,2.15-3.47,3.19-5.23.67-1.13,1.26-2.31,1.94-3.43,1.18-1.93,2.43-3.81,3.61-5.74.6-1,1.09-2.06,1.65-3.09,1.26-2.29,2.5-4.59,3.79-6.87.76-1.35,1.6-2.64,2.39-4C763.64,25,764.78,23,766,21c.9-1.45,1.94-2.81,2.91-4.22a28.81,28.81,0,0,1,3-4.32A61.72,61.72,0,0,1,778.23,7,18.07,18.07,0,0,1,782,5.09a37.66,37.66,0,0,1,5.48-2.18,62.48,62.48,0,0,1,6.3-.93c10.24-1.58,20.53-.5,30.8-.7s20.64,0,31,0h92.75c10.32,0,20.64.05,31,0a21.43,21.43,0,0,1,9.39,2.43c1,.49,1.68,1.71,2.56,2.55a9.07,9.07,0,0,1,1.73,3.24c1,2.34.68,4.73.56,7.07a18.87,18.87,0,0,1-1.26,5.35,73.51,73.51,0,0,1-3.27,7.57c-1,2.08-2.42,4-3.59,6-.59,1-1,2.17-1.58,3.23-.82,1.55-1.7,3.06-2.53,4.61-.41.75-.77,1.53-1.15,2.3a2.46,2.46,0,0,1-2.38,1.59q-47.64,0-95.28,0c-.47,0-1.28-.17-1.34-.41a4.07,4.07,0,0,1,.13-1.92,27.56,27.56,0,0,0,1.08-3.65,38.47,38.47,0,0,0,.07-5.15c-.05-2.71-1.86-4.26-4-5.39a11.13,11.13,0,0,0-6.57-1.37c-2.16.26-4.28.78-6.41,1.25-3.54.78-6.27,3-8.68,5.49a42.15,42.15,0,0,0-4.38,6.12c-1.08,1.62-2.08,3.3-3.07,5-1.25,2.12-2.44,4.26-3.67,6.38-1.08,1.88-2.16,3.74-3.26,5.6s-2.23,3.71-3.35,5.57c-.88,1.48-1.75,3-2.64,4.44-.44.72-.19,1,.58,1.08.44,0,.88,0,1.32,0q47.38,0,94.79,0a12,12,0,0,1,2.8.7,1.47,1.47,0,0,0,.46.11c2.62-.06,4.9.95,7.21,2.06a12.47,12.47,0,0,1,5.22,4.09c1.71,2.54,3,5.23,2.81,8.41-.06,1,0,1.92,0,2.88a17.26,17.26,0,0,1-1.31,6.21c-1.19,3.59-3.41,6.58-5.27,9.78-1.29,2.23-2.63,4.43-3.93,6.66-1,1.79-2,3.62-3.09,5.39-1.36,2.23-2.81,4.39-4.19,6.61-.54.87-.93,1.83-1.45,2.71-2.13,3.59-4.25,7.18-6.42,10.74-1.09,1.79-2.32,3.5-3.4,5.29-.89,1.48-1.62,3-2.49,4.53a19.72,19.72,0,0,1-1.54,2.2c-1.83,2.37-3.57,4.8-5.54,7a23.54,23.54,0,0,1-4.34,3.75,59.39,59.39,0,0,1-6.43,3.81,45.22,45.22,0,0,1-5.75,2.39c-1.28.44-2.75.4-4,.92-2.07.87-4.31.25-6.28.86a18.18,18.18,0,0,1-5.65.5q-85,0-170,0a29.86,29.86,0,0,1-7.38-.78c-3.33-.86-6.62-2.16-9-4.82-1.05-1.2-1.5-2.9-2.35-4.3-1.23-2-.68-4.19-.64-6.28a12,12,0,0,1,1-3.95,31,31,0,0,1,1.93-4c.76-1.43,1.62-2.81,2.44-4.21,1.19-2,2.37-4.06,3.59-6.07,1.11-1.83,2.3-3.61,3.42-5.44.6-1,1-2,1.7-3a3.06,3.06,0,0,1,1.37-.86,2.93,2.93,0,0,1,1.07,0q47,0,94,0a10.69,10.69,0,0,1,2.11.43c-.33.68-.65,1.37-1,2.05l-.82,1.66a10.6,10.6,0,0,0-.89,7.39c.3,1.12,1.7,2.06,2.77,2.84,1.85,1.34,4.08.63,6.14.78,1.19.08,2.4-.06,3.59,0,2.44.09,4.68-.7,7-1.29,3.57-.91,6.25-3.11,8.83-5.48a19.67,19.67,0,0,0,2.57-3.38c.75-1.07,1.47-2.17,2.12-3.31,1.13-2,2.18-4,3.3-6.06.51-.92,1.12-1.79,1.66-2.7.7-1.2,1.39-2.41,2-3.63.89-1.61,1.74-3.24,2.63-4.85,1.16-2.1,2.33-4.2,3.52-6.28C847.76,101.2,848.45,100.15,849.25,98.85Z"/></g></g></svg>